HIERARCHY
ROOT Hips
{
	OFFSET	0.00	0.00	0.00
	CHANNELS 6 Xposition Yposition Zposition Zrotation Xrotation Yrotation
	JOINT LeftUpLeg
	{
		OFFSET	 0.126116	-0.014019	-0.065224
		CHANNELS 3 Zrotation Xrotation Yrotation
		JOINT LeftLeg
		{
			OFFSET	 0.000000	 0.000000	 0.569914
			CHANNELS 3 Zrotation Xrotation Yrotation
			JOINT LeftFoot
			{
				OFFSET	 0.000000	 0.000000	 0.544423
				CHANNELS 3 Zrotation Xrotation Yrotation
				JOINT LeftToeBase
				{
					OFFSET	 0.000000	 0.000000	 0.207117
					CHANNELS 3 Zrotation Xrotation Yrotation
					End Site
					{
						OFFSET	 0.000000	 0.000000	 0.207117
					}
				}
			}
		}
	}
	JOINT RightUpLeg
	{
		OFFSET	-0.124023	-0.008373	-0.065224
		CHANNELS 3 Zrotation Xrotation Yrotation
		JOINT RightLeg
		{
			OFFSET	 0.000000	 0.000000	 0.570047
			CHANNELS 3 Zrotation Xrotation Yrotation
			JOINT RightFoot
			{
				OFFSET	 0.000000	 0.000000	 0.544354
				CHANNELS 3 Zrotation Xrotation Yrotation
				JOINT RightToeBase
				{
					OFFSET	 0.000000	 0.000000	 0.207540
					CHANNELS 3 Zrotation Xrotation Yrotation
					End Site
					{
						OFFSET	 0.000000	 0.000000	 0.207540
					}
				}
			}
		}
	}
	JOINT Spine
	{
		OFFSET	 0.000184	-0.007763	 0.117403
		CHANNELS 3 Zrotation Xrotation Yrotation
		JOINT Spine1
		{
			OFFSET	 0.000000	 0.000000	 0.137269
			CHANNELS 3 Zrotation Xrotation Yrotation
			JOINT Spine2
			{
				OFFSET	 0.000000	 0.000000	 0.156879
				CHANNELS 3 Zrotation Xrotation Yrotation
				JOINT LeftShoulder
				{
					OFFSET	 0.080501	-0.002496	 0.160144
					CHANNELS 3 Zrotation Xrotation Yrotation
					JOINT LeftArm
					{
						OFFSET	 0.000000	 0.000000	 0.164363
						CHANNELS 3 Zrotation Xrotation Yrotation
						JOINT LeftForeArm
						{
							OFFSET	 0.000000	 0.000000	 0.364576
							CHANNELS 3 Zrotation Xrotation Yrotation
							JOINT LeftHand
							{
								OFFSET	 0.000000	 0.000000	 0.360812
								CHANNELS 3 Zrotation Xrotation Yrotation
								JOINT LeftHandIndex1
								{
									OFFSET	 0.000000	 0.000000	 0.086006
									CHANNELS 3 Zrotation Xrotation Yrotation
									JOINT LeftHandIndex2
									{
										OFFSET	 0.000000	 0.000000	 0.047237
										CHANNELS 3 Zrotation Xrotation Yrotation
										JOINT LeftHandIndex3
										{
											OFFSET	-0.004284	-0.000551	 0.038165
											CHANNELS 3 Zrotation Xrotation Yrotation
											End Site
											{
												OFFSET	-0.004284	-0.000551	 0.038165
											}
										}
									}
								}
							}
						}
					}
				}
				JOINT Neck
				{
					OFFSET	 0.000000	 0.000000	 0.176489
					CHANNELS 3 Zrotation Xrotation Yrotation
					JOINT Head
					{
						OFFSET	 0.000000	-0.001747	 0.077940
						CHANNELS 3 Zrotation Xrotation Yrotation
						End Site
						{
							OFFSET	 0.000000	-0.001747	 0.077940
						}
					}
				}
				JOINT RightShoulder
				{
					OFFSET	-0.080363	 0.000306	 0.159706
					CHANNELS 3 Zrotation Xrotation Yrotation
					JOINT RightArm
					{
						OFFSET	 0.000000	 0.000000	 0.164196
						CHANNELS 3 Zrotation Xrotation Yrotation
						JOINT RightForeArm
						{
							OFFSET	 0.000000	 0.000000	 0.365611
							CHANNELS 3 Zrotation Xrotation Yrotation
							JOINT RightHand
							{
								OFFSET	 0.000000	 0.000000	 0.360648
								CHANNELS 3 Zrotation Xrotation Yrotation
								JOINT RightHandIndex1
								{
									OFFSET	 0.000000	 0.000000	 0.069977
									CHANNELS 3 Zrotation Xrotation Yrotation
									JOINT RightHandIndex2
									{
										OFFSET	 0.000000	 0.000000	 0.052305
										CHANNELS 3 Zrotation Xrotation Yrotation
										JOINT RightHandIndex3
										{
											OFFSET	 0.009002	-0.000782	 0.042196
											CHANNELS 3 Zrotation Xrotation Yrotation
											End Site
											{
												OFFSET	 0.009002	-0.000782	 0.042196
											}
										}
									}
								}
							}
						}
					}
				}
			}
		}
	}
}
MOTION
Frames:    7
Frame Time: 0.03333334
-0.717993	-0.024415	 1.259035	 169.474900	-5.312662	 0.737150	 11.118460	-3.343634	 175.653300	-2.212032	-33.482810	-2.029734	-62.391670	 76.804820	 53.917190	-2.385833	 28.452760	 0.000004	-34.495190	-9.023846	-168.145500	 10.214150	-33.500350	 5.803894	 25.209130	 78.190830	-27.233640	 2.384659	 28.388700	-0.000001	 47.336810	-1.263170	-13.630720	 2.400525	 11.652110	 2.754435	 6.604625	 0.862990	 1.417182	-91.776210	 78.527420	-180.000000	 17.696290	 51.303060	-68.985680	-47.845620	 1.591282	-9.637916	-37.963270	-36.042730	-21.976330	-4.130354	 21.526190	 0.991307	-5.167926	 0.731697	 3.519349	-1.378229	 35.397820	-2.634230	 14.480860	 6.109922	-2.297797	 7.834172	-13.301390	-1.946436	 89.782120	 78.203890	 180.000000	-54.833930	 7.922697	 75.975590	 2.677113	 4.639971	 155.276700	 12.207730	 7.656876	 10.097410	 5.716295	 19.173350	-3.684826	 5.027458	 0.246833	-9.377971	-2.350882	 35.473990	 5.254307
-0.718857	-0.024520	 1.258229	 168.753400	-5.683012	 1.177159	 10.638510	-2.898345	 175.476400	-1.915866	-33.514440	-1.867467	-62.221260	 76.653020	 53.425700	-2.385833	 28.452760	 0.000004	-35.241500	-8.745519	-168.091100	 10.501400	-33.256080	 5.928020	 23.194080	 78.044330	-25.572020	 2.384659	 28.388700	-0.000001	 48.690400	-1.012308	-14.823580	 2.765995	 12.092810	 1.483212	 6.290478	-0.492438	 3.826651	-91.776170	 78.527350	 180.000000	 16.066080	 48.773470	-68.678120	-48.553550	 1.605439	-9.656304	-39.170240	-36.076930	-22.713440	-4.130354	 21.526190	 0.991307	-5.167926	 0.731697	 3.519349	-1.378229	 35.397820	-2.634230	 14.852540	 5.129923	-3.740397	 7.480462	-13.946680	-4.469977	 89.782050	 78.203830	-180.000000	-56.997330	 6.510408	 76.187810	 3.734617	 4.077906	 154.382300	 7.385107	 8.756043	 12.031140	 5.716295	 19.173350	-3.684826	 5.027458	 0.246833	-9.377971	-2.350882	 35.473990	 5.254307
-0.718196	-0.024776	 1.257172	 168.240900	-5.738905	 1.354779	 9.843240	-2.644621	 175.613200	-1.641677	-33.338100	-1.707770	-62.946150	 76.805010	 53.857900	-2.385833	 28.452760	 0.000004	-36.007510	-8.897942	-168.053600	 10.801790	-33.208370	 6.089271	 21.908450	 78.028110	-24.494120	 2.384659	 28.388700	-0.000001	 49.953660	-1.639176	-15.181990	 3.396747	 13.059730	 0.794414	 5.989045	-1.994907	 4.253686	-91.776100	 78.527400	 179.999900	 16.735480	 47.933510	-63.823360	-47.735350	 9.005079	-22.496240	-40.571270	-36.327540	-23.714690	-4.130354	 21.526190	 0.991307	-5.167926	 0.731697	 3.519349	-1.378229	 35.397820	-2.634230	 15.063860	 5.279804	-4.412665	 7.262890	-15.508500	-4.679182	 89.782090	 78.203870	-180.000000	-57.769470	 4.161492	 75.797010	 4.833903	 3.427305	 153.572300	 1.989344	 8.717742	 13.560130	 5.716295	 19.173350	-3.684826	 5.027458	 0.246833	-9.377971	-2.350882	 35.473990	 5.254307
-0.717476	-0.025029	 1.256167	 167.807000	-5.697479	 1.184092	 9.175955	-2.375215	 176.038700	-1.429590	-33.032070	-1.578049	-62.829860	 77.020380	 53.487460	-2.385833	 28.452760	 0.000004	-36.513030	-9.331056	-167.835700	 11.062140	-33.348350	 6.258763	 21.296060	 78.182170	-24.008790	 2.384659	 28.388700	-0.000001	 51.174160	-2.339280	-15.285550	 4.038198	 14.007960	 0.565649	 5.693495	-3.338242	 4.204540	-91.776260	 78.527380	-179.999900	 17.208630	 48.559430	-55.803250	-43.225640	 18.867270	-41.911640	-41.774370	-36.461280	-24.478080	-4.130354	 21.526190	 0.991307	-5.167926	 0.731697	 3.519349	-1.378229	 35.397820	-2.634230	 15.163110	 5.788177	-4.852216	 7.149713	-17.211120	-4.545648	 89.782100	 78.203890	 180.000000	-57.768350	 1.584619	 75.280790	 6.044739	 2.646006	 152.799800	-3.423523	 8.282533	 14.668210	 5.716295	 19.173350	-3.684826	 5.027458	 0.246833	-9.377971	-2.350882	 35.473990	 5.254307
-0.716778	-0.025179	 1.255027	 167.291400	-5.666053	 0.973633	 8.299562	-2.013804	 176.427700	-1.159031	-32.805070	-1.421592	-63.322420	 77.115090	 53.724130	-2.385833	 28.452760	 0.000004	-37.088390	-9.716656	-167.641000	 11.380290	-33.547820	 6.472327	 20.165460	 78.487800	-22.994360	 2.384659	 28.388700	-0.000001	 52.717810	-3.053029	-15.455310	 4.941087	 14.894140	-0.179675	 5.360507	-4.679963	 4.608766	-91.776220	 78.527380	-180.000000	 13.853240	 49.884030	-45.403270	-35.519230	 26.236390	-62.112050	-42.651230	-36.365430	-24.780390	-4.130354	 21.526190	 0.991307	-5.167926	 0.731697	 3.519349	-1.378229	 35.397820	-2.634230	 15.136850	 5.887719	-5.209178	 6.984244	-18.632600	-4.845040	 89.782120	 78.203890	 180.000000	-57.432500	-1.398875	 74.796930	 7.622050	 1.536043	 152.041600	-9.837184	 7.672005	 15.224710	 5.716295	 19.173350	-3.684826	 5.027458	 0.246833	-9.377971	-2.350882	 35.473990	 5.254307
-0.715576	-0.025249	 1.253946	 166.870400	-5.685044	 1.001750	 7.177591	-1.678839	 176.513100	-0.838218	-32.760550	-1.246063	-66.397960	 77.294350	 56.531370	-2.385833	 28.452760	 0.000004	-37.828770	-9.776477	-167.668200	 11.675670	-33.644020	 6.657072	 19.685130	 78.750810	-22.635110	 2.384659	 28.388700	-0.000001	 54.135890	-3.905763	-15.454760	 6.058513	 15.658530	-1.499405	 5.024924	-5.517917	 4.889160	-91.776140	 78.527400	 180.000000	 5.858249	 51.525510	-34.609810	-27.803130	 29.671810	-78.488840	-43.470140	-36.427530	-25.068180	-4.130354	 21.526190	 0.991307	-5.167926	 0.731697	 3.519349	-1.378229	 35.397820	-2.634230	 14.893530	 5.268628	-5.090547	 6.740755	-18.860050	-5.165187	 89.782100	 78.203850	 180.000000	-56.663170	-4.045125	 74.438110	 8.966810	 0.527580	 151.628000	-15.433180	 6.921439	 14.543480	 5.716295	 19.173350	-3.684826	 5.027458	 0.246833	-9.377971	-2.350882	 35.473990	 5.254307
-0.714333	-0.025502	 1.252858	 166.454900	-5.816482	 0.732112	 6.576802	-1.243975	 176.990200	-0.631028	-32.492100	-1.125576	-66.650710	 77.112660	 56.717090	-2.385833	 28.452760	 0.000004	-38.394630	-10.181060	-167.263600	 12.027890	-33.848460	 6.894683	 19.055080	 78.989710	-22.123440	 2.384659	 28.388700	-0.000001	 55.776210	-4.684103	-15.086970	 7.314667	 16.818660	-2.419923	 4.451969	-6.814498	 4.856835	-91.776220	 78.527420	-180.000000	-5.432044	 49.668170	-29.697830	-25.331180	 30.219910	-83.411630	-43.515250	-36.178680	-24.625950	-4.130354	 21.526190	 0.991307	-5.167926	 0.731697	 3.519349	-1.378229	 35.397820	-2.634230	 14.461220	 5.586318	-4.836470	 6.292273	-20.535170	-6.181270	 89.782100	 78.203890	 180.000000	-55.054540	-7.082542	 74.179790	 10.378270	-0.561971	 151.134900	-21.874970	 6.155841	 12.819590	 5.716295	 19.173350	-3.684826	 5.027458	 0.246833	-9.377971	-2.350882	 35.473990	 5.254307
